HIERARCHY
ROOT ui
{
	 OFFSET 0 0 0
	 CHANNELS 3 XPosition YPosition Z Position
	 EndSite
	 {
	 OFFSET 0 -1 0
	 }
}
ROOT li
{
	 OFFSET 0 0 0
	 CHANNELS 3 XPosition YPosition Z Position
	 EndSite
	 {
	 OFFSET 0 -1 0
	 }
}
ROOT ul
{
	 OFFSET 0 0 0
	 CHANNELS 3 XPosition YPosition Z Position
	 EndSite
	 {
	 OFFSET 0 -1 0
	 }
}
ROOT ll
{
	 OFFSET 0 0 0
	 CHANNELS 3 XPosition YPosition Z Position
	 EndSite
	 {
	 OFFSET 0 -1 0
	 }
}
ROOT tt
{
	 OFFSET 0 0 0
	 CHANNELS 3 XPosition YPosition Z Position
	 EndSite
	 {
	 OFFSET 0 -1 0
	 }
}
ROOT tb
{
	 OFFSET 0 0 0
	 CHANNELS 3 XPosition YPosition Z Position
	 EndSite
	 {
	 OFFSET 0 -1 0
	 }
}
ROOT td
{
	 OFFSET 0 0 0
	 CHANNELS 3 XPosition YPosition Z Position
	 EndSite
	 {
	 OFFSET 0 -1 0
	 }
}
ROOT v
{
	 OFFSET 0 0 0
	 CHANNELS 3 XPosition YPosition Z Position
	 EndSite
	 {
	 OFFSET 0 -1 0
	 }
}
ROOT bn
{
	 OFFSET 0 0 0
	 CHANNELS 3 XPosition YPosition Z Position
	 EndSite
	 {
	 OFFSET 0 -1 0
	 }
}
MOTION
Frames: 26
Frame Time: 0.002
0.0018243659734725952	-3.4891900420188905E-4	0		0.4838887939453125	-2.370287353515625	0		-1.0397427978515625	-0.03385674667358399	0		-0.726325927734375	-2.3054384765625	0		1.64578955078125	-0.5172779541015625	0		3.140091064453125	-0.003024211883544922	0		4.53704150390625	0.055540203094482425	0		5.64107568359375	0.122181884765625	0		-0.1808730926513672	5.9147666015625	0		
0.0822473373413086	-0.00735007905960083	0		0.48631436157226565	-2.365231201171875	0		-1.0312451171875	-0.03478174209594727	0		-0.7479495849609376	-2.30396533203125	0		1.644269775390625	-0.5172431640625	0		3.148576904296875	-0.005229260921478272	0		4.5457548828125	0.06923995971679688	0		5.64959765625	0.12180901336669922	0		-0.06381944274902343	5.9242724609375	0		
0.0059629597663879395	0.0058321099281311035	0		0.4846905212402344	-2.365129638671875	0		-1.03270751953125	-0.034575180053710936	0		-0.68450537109375	-2.299692138671875	0		1.64277392578125	-0.5172220458984375	0		3.147116455078125	-0.005312415122985839	0		4.528216796875	0.06328540420532226	0		5.6381474609375	0.12169303894042968	0		-0.1830116729736328	5.9150712890625	0		
0.07848692321777344	9.110620021820069E-4	0		0.4810665588378906	-2.36801171875	0		-1.044107421875	-0.03323593521118164	0		-0.7630606689453125	-2.297431640625	0		1.6413243408203124	-0.5172153930664063	0		3.161701904296875	-0.005639357089996338	0		4.5388076171875	0.06291615295410156	0		5.64674267578125	0.12127262878417969	0		-0.198155029296875	5.90440771484375	0		
-0.0038869030475616453	1.678670048713684E-4	0		0.4795376892089844	-2.367934814453125	0		-1.0143956298828125	-0.028487041473388673	0		-0.6937050170898438	-2.30627001953125	0		1.6399324951171874	-0.5172244873046875	0		3.13437890625	-0.0033920040130615233	0		4.5254599609375	0.062863037109375	0		5.63539892578125	0.12110913848876953	0		-0.19907183837890624	5.90453466796875	0		
-0.005178772926330567	2.671869993209839E-4	0		0.4521098937988281	-2.364501708984375	0		-1.0408299560546874	-0.03795241546630859	0		-0.7660521240234375	-2.297105224609375	0		1.6386009521484375	-0.5172510986328125	0		3.138986328125	-0.010618012428283691	0		4.5241728515625	0.06261540985107422	0		5.6341162109375	0.12077649688720703	0		-0.18478448486328125	5.91343359375	0		
0.010544694900512696	-0.0028919119834899904	0		0.4906004943847656	-2.37102685546875	0		-1.0380076904296875	-0.033843544006347655	0		-0.75252490234375	-2.301175048828125	0		1.6403853759765625	-0.5133402099609375	0		3.154881103515625	-0.0020275349617004394	0		4.525017578125	0.06731183624267578	0		5.636994140625	0.12735604095458986	0		-0.16942001342773438	5.9223017578125	0		
0.012427316665649415	0.0011314890384674073	0		0.48137698364257814	-2.360884521484375	0		-1.0391849365234376	-0.03369055938720703	0		-0.764771240234375	-2.292887451171875	0		1.639168701171875	-0.5134065551757813	0		3.134751708984375	0.0010561039447784424	0		4.5488603515625	0.06764828491210938	0		5.6317294921875	0.12002092742919922	0		-0.1872089385986328	5.9156298828125	0		
-0.00466356897354126	0.0034130539894104005	0		0.4759982604980469	-2.36481640625	0		-1.019224609375	-0.027857885360717774	0		-0.7701442260742187	-2.2967138671875	0		1.6349459228515626	-0.5174505004882812	0		3.1336298828125	8.418809771537781E-4	0		4.52066015625	0.061707347869873044	0		5.63061767578125	0.11959584808349609	0		-0.20198936462402345	5.904900390625	0		
7.158800214529038E-5	-0.009641080856323243	0		0.4726747131347656	-2.36779638671875	0		-1.0572977294921875	-0.02719718551635742	0		-0.771418212890625	-2.296615478515625	0		1.6338262939453125	-0.5175607299804688	0		3.13845263671875	-0.006485375881195068	0		4.53158935546875	0.06117126846313477	0		5.62543701171875	0.11119797515869141	0		-0.20255126953125	5.90494970703125	0		
-0.010814804077148438	5.16726016998291E-4	0		0.47143084716796874	-2.367826416015625	0		-1.04648193359375	-0.037266643524169925	0		-0.77265576171875	-2.296534912109375	0		1.632746826171875	-0.5176939086914063	0		3.13152197265625	3.352670073509216E-4	0		4.5226650390625	0.06789759063720703	0		5.6285302734375	0.11865068817138671	0		-0.20307516479492188	5.90397998046875	0		
-0.011812463760375976	5.094500184059143E-4	0		0.4203731384277344	-2.357138916015625	0		-1.04342431640625	-0.03324018478393555	0		-0.7718310546875	-2.29450341796875	0		1.631702392578125	-0.5178492431640624	0		3.130524169921875	4.48560006916523E-5	0		4.5336572265625	0.06630449676513672	0		5.62754345703125	0.11813529205322265	0		-0.189364990234375	5.91578173828125	0		
0.0072349848747253415	0.0011845049858093262	0		0.4731141052246094	-2.363008056640625	0		-1.056242431640625	-0.022996665954589844	0		-0.7709744873046875	-2.29249169921875	0		1.6306903076171875	-0.5180253295898437	0		3.1354541015625	-0.007355405807495117	0		4.52071435546875	0.06704411315917969	0		5.6265888671875	0.11759745788574219	0		-0.07164408874511718	5.925013671875	0		
-0.013712329864501953	4.348919987678528E-4	0		0.4699366455078125	-2.365069091796875	0		-1.0512547607421876	-0.028039085388183595	0		-0.7012286376953125	-2.300532470703125	0		1.6297088623046876	-0.5182207641601563	0		3.15051708984375	-0.007926025867462157	0		4.52768017578125	0.059469108581542966	0		5.62566455078125	0.11704168701171876	0		-0.19019593811035157	5.91573876953125	0		
-0.014616983413696289	3.675130009651184E-4	0		0.46677587890625	-2.368149169921875	0		-1.062145751953125	-0.026863391876220704	0		-0.7772850341796875	-2.29640966796875	0		1.6287579345703125	-0.5184348754882813	0		3.127719482421875	-9.454230070114136E-4	0		4.51478173828125	0.059176998138427736	0		5.620650390625	0.10853201293945312	0		-0.204736572265625	5.9048994140625	0		
-0.005642769813537597	-0.009870409965515137	0		0.439742919921875	-2.364885498046875	0		-1.0630213623046876	-0.026858953475952147	0		-0.7315320434570313	-2.308140869140625	0		1.627839111328125	-0.5186669311523437	0		3.1286640625	-0.013338123321533203	0		4.50779345703125	0.0507830924987793	0		5.6239072265625	0.11588764190673828	0		-0.1747914123535156	5.92437158203125	0		
6.243469715118408E-4	-0.003086100101470947	0		0.4687290954589844	-2.3634892578125	0		-1.0479547119140624	-0.03311945724487304	0		-0.7644576416015625	-2.3007001953125	0		1.63592529296875	-0.52105224609375	0		3.139067626953125	0.0021152119636535646	0		4.51515673828125	0.06316410064697266	0		5.627185546875	0.1222344741821289	0		-0.17415135192871095	5.92226318359375	0		
-0.006972803115844727	0.009892321586608887	0		0.47181231689453124	-2.358717041015625	0		-1.0077130737304687	-0.030787897109985352	0		-0.7034066162109375	-2.298713623046875	0		1.6291778564453125	-0.5152239990234375	0		3.125211181640625	-0.0020728840827941896	0		4.51639599609375	0.06463143157958984	0		5.6222919921875	0.11470247650146484	0		-0.058240673065185544	5.9353720703125	0		
0.06894541931152344	-0.012433631896972656	0		0.46476766967773436	-2.36580517578125	0		-1.0613516845703126	-0.023036617279052735	0		-0.779284423828125	-2.2946474609375	0		1.625325439453125	-0.5194505004882812	0		3.1244609375	-0.0024649410247802733	0		4.5235419921875	0.05700653457641602	0		5.62155126953125	0.11411202239990234	0		-0.20600985717773437	5.90449951171875	0		
-0.01148448944091797	0.005638233184814453	0		0.4618414001464844	-2.36896728515625	0		-1.0231987915039062	-0.032717018127441405	0		-0.7191664428710938	-2.295690673828125	0		1.624584716796875	-0.5197315673828125	0		3.129650146484375	-0.009951137542724609	0		4.51084619140625	0.056692302703857424	0		5.61673486328125	0.10559210968017578	0		-0.20626559448242188	5.90435693359375	0		
-0.019232212066650392	-4.221499860286713E-4	0		0.4370980224609375	-2.363798583984375	0		-1.050869140625	-0.033395374298095706	0		-0.7830086669921875	-2.2968310546875	0		1.62389208984375	-0.5200176391601562	0		3.119026123046875	-0.008188944816589355	0		4.5101943359375	0.056201255798339844	0		5.62021044921875	0.11295940399169922	0		-0.22642190551757813	5.9095107421875	0		
-0.002895896911621094	-0.003866434097290039	0		0.4643246765136719	-2.36444482421875	0		-1.051486083984375	-0.033507015228271486	0		-0.7797122802734375	-2.293023193359375	0		1.6232431640625	-0.5203048706054687	0		3.12248828125	-0.003637362003326416	0		4.51778515625	0.0685981216430664	0		5.61960302734375	0.11240982055664063	0		-0.05923213195800781	5.93473583984375	0		
-0.013330707550048828	0.0051011710166931155	0		0.43868914794921876	-2.359269287109375	0		-1.0520648193359374	-0.03363279724121094	0		-0.7804249877929688	-2.2931650390625	0		1.6256978759765626	-0.5166366577148438	0		3.12780078125	-0.011103657722473145	0		4.52510205078125	0.06101779556274414	0		5.619033203125	0.1118886489868164	0		-0.05945716857910156	5.93455126953125	0		
-0.013869492530822754	0.004908658981323242	0		0.46091366577148435	-2.36684619140625	0		-1.02746728515625	-0.025164926528930664	0		-0.7461670532226562	-2.29886669921875	0		1.6220692138671875	-0.5208673706054687	0		3.13135498046875	-0.005524293899536133	0		4.5084736328125	0.05483978652954102	0		5.6185	0.11140113830566406	0		-0.059685394287109374	5.93436083984375	0		
-0.021461610794067384	-0.0011760920286178588	0		0.46030661010742185	-2.367063720703125	0		-1.06494677734375	-0.023731260299682616	0		-0.74880224609375	-2.300997314453125	0		1.6215467529296874	-0.5211381225585937	0		3.120873046875	-0.004706674098968506	0		4.51997607421875	0.0542476921081543	0		5.613880859375	0.10301139831542969	0		-0.19422660827636717	5.9152822265625	0		
-0.021913326263427735	-0.0013737330436706544	0		0.459760009765625	-2.36728076171875	0		-1.05762158203125	-0.03801171493530273	0		-0.7842628173828124	-2.29561328125	0		1.62107421875	-0.5214016723632813	0		3.109327880859375	-0.010855788230895997	0		4.5055126953125	0.053089237213134764	0		5.61755908203125	0.11052349853515625	0		-0.17731671142578126	5.92282177734375	0		
